<?xml version="1.0" standalone="no"?>
<!DOCTYPE svg PUBLIC "-//W3C//DTD SVG 20010904//EN"
 "http://www.w3.org/TR/2001/REC-SVG-20010904/DTD/svg10.dtd">
<svg version="1.0" xmlns="http://www.w3.org/2000/svg"
 width="480.000000pt" height="480.000000pt" viewBox="0 0 480.000000 480.000000"
 preserveAspectRatio="xMidYMid meet">
<metadata>
Created by potrace 1.11, written by Peter Selinger 2001-2013
</metadata>
<g transform="translate(0.000000,480.000000) scale(0.100000,-0.100000)"
fill="#000000" stroke="none">
<path d="M2920 3745 c-166 -36 -311 -108 -425 -209 l-39 -35 -41 40 c-55 55
-176 114 -265 129 -320 54 -594 -150 -645 -482 l-6 -37 -72 0 c-114 -1 -164
-14 -269 -68 -112 -58 -204 -162 -254 -285 -31 -75 -39 -122 -38 -224 l1 -81
-85 -21 c-248 -62 -441 -252 -508 -502 -24 -88 -24 -262 -1 -350 30 -111 93
-224 172 -305 68 -69 86 -84 164 -132 47 -29 171 -70 241 -81 66 -9 3130 -8
3180 2 269 52 487 254 556 511 21 80 25 238 8 318 -62 297 -292 511 -599 556
-27 4 -49 11 -48 16 1 6 9 28 17 51 44 121 58 336 31 465 -75 355 -325 618
-680 715 -82 22 -309 27 -395 9z"/>
</g>
</svg>
